<?xml version="1.0" standalone="no"?>
<!DOCTYPE svg PUBLIC "-//W3C//DTD SVG 20010904//EN"
 "http://www.w3.org/TR/2001/REC-SVG-20010904/DTD/svg10.dtd">
<svg version="1.0" xmlns="http://www.w3.org/2000/svg"
 width="1032.000000pt" height="1032.000000pt" viewBox="0 0 1032.000000 1032.000000"
 preserveAspectRatio="xMidYMid meet">
<metadata>
Created by potrace 1.11, written by Peter Selinger 2001-2013
</metadata>
<g transform="translate(0.000000,1032.000000) scale(0.100000,-0.100000)"
fill="#000000" stroke="none">
<path d="M2920 7860 l0 -550 278 0 c152 0 340 -3 418 -7 l140 -6 187 -496 188
-496 -884 -2160 c-487 -1188 -892 -2177 -900 -2198 l-16 -37 598 0 597 0 583
1428 c321 785 587 1430 590 1435 4 4 251 -637 548 -1425 l541 -1433 819 0 818
0 3 553 2 552 -437 0 -438 0 -1016 2693 -1017 2692 -801 3 -801 2 0 -550z"/>
</g>
</svg>
